<svg version="1.1" xmlns="http://www.w3.org/2000/svg" xmlns:xlink="http://www.w3.org/1999/xlink" x="0px" y="0px"
	 width="500px" height="500px" viewBox="0 0 500 500" enable-background="new 0 0 500 500" xml:space="preserve">
<path fill="#B5B5B6" d="M424.152,4.803C421.095,1.745,416.884,0,412.562,0H87.438c-4.314,0-8.541,1.745-11.59,4.803
	c-3.058,3.05-4.803,7.276-4.803,11.591v467.213c0,4.322,1.745,8.533,4.803,11.591c3.05,3.058,7.276,4.803,11.59,4.803h325.124
	c4.322,0,8.533-1.745,11.591-4.803s4.803-7.269,4.803-11.591V16.394C428.955,12.079,427.21,7.853,424.152,4.803z M304.596,464.908
	c0,1.28-3.202,2.305-7.061,2.305h-95.079c-3.882,0-7.036-1.024-7.036-2.305v-42.617c0-1.28,3.154-2.321,7.036-2.321h95.079
	c3.858,0,7.061,1.041,7.061,2.321V464.908z M395.399,365.459c0,9.125-8.421,16.489-18.763,16.489H123.379
	c-10.358,0-18.763-7.364-18.763-16.489V60.331c0-9.101,8.405-16.497,18.763-16.497h253.258c10.342,0,18.763,7.396,18.763,16.497
	V365.459z"/>
</svg>
