<svg version="1.1" xmlns="http://www.w3.org/2000/svg" xmlns:xlink="http://www.w3.org/1999/xlink" x="0px" y="0px"
	 width="500px" height="500px" viewBox="0 0 500 500" enable-background="new 0 0 500 500" xml:space="preserve">
<path fill-rule="evenodd" clip-rule="evenodd" fill="#B5B5B6" d="M500,189.736c0-5.537,0-4.017-5.537-4.017h-55.382h-94.138
	l-22.162-39.469L261.879,29.203c-5.553,0-5.553,0-11.09,0L195.425,146.25l-22.163,39.469H79.107H0v2.513l31.249,22.163
	l87.633,77.562L98.994,465.262c0,5.535,1.139,5.535,12.211,5.535l144.561-88.65l144.254,88.65c5.554,0,5.689,0,11.227-5.535
	l-27.615-177.305l83.099-71.278L500,189.736z M134.506,359.627l160.593-130.89l-149.52-25.627h227.047L234.18,328.463
	l143.983,31.164H134.506z"/>
</svg>
