<svg version="1.1" xmlns="http://www.w3.org/2000/svg" xmlns:xlink="http://www.w3.org/1999/xlink" x="0px" y="0px"
	 width="500px" height="500px" viewBox="0 0 500 500" enable-background="new 0 0 500 500" xml:space="preserve">
<path fill="#B5B5B6" d="M274.649,250.002L494.894,29.77c6.812-6.812,6.812-17.847,0-24.659c-6.812-6.812-17.847-6.812-24.658,0
	L250.002,225.344L29.77,5.111c-6.812-6.812-17.847-6.812-24.659,0c-6.812,6.812-6.812,17.847,0,24.659l220.233,220.233
	L5.111,470.235c-6.812,6.812-6.812,17.847,0,24.658c6.812,6.812,17.847,6.812,24.659,0l220.233-220.244l220.233,220.244
	c6.812,6.812,17.847,6.812,24.658,0s6.812-17.847,0-24.658L274.649,250.002z"/>
</svg>
