<svg version="1.1" xmlns="http://www.w3.org/2000/svg" xmlns:xlink="http://www.w3.org/1999/xlink" x="0px" y="0px"
	 width="500px" height="500px" viewBox="0 0 500 500" enable-background="new 0 0 500 500" xml:space="preserve">
<path fill="#B5B5B6" d="M387.563,354.895c-18.689,0-35.544,7.257-48.407,18.857l-158.93-107.887
	c2.93-7.88,4.756-16.299,4.756-25.197c0-7.67-1.515-14.918-3.721-21.855l155.184-94.804c13.1,13.032,31.166,21.105,51.118,21.105
	c40.091-0.008,72.57-32.479,72.57-72.553c0-40.082-32.479-72.553-72.57-72.562c-40.073,0.009-72.553,32.479-72.553,72.562
	c0,7.67,1.516,14.91,3.721,21.847l-155.175,94.804c-13.116-13.032-31.175-21.097-51.136-21.105
	c-40.073,0.009-72.544,32.479-72.553,72.562c0.008,40.073,32.479,72.554,72.553,72.554c18.69,0,35.544-7.258,48.408-18.858
	l158.946,107.895c-2.946,7.881-4.765,16.299-4.765,25.206c0,40.057,32.479,72.536,72.553,72.536c40.091,0,72.57-32.479,72.57-72.536
	C460.133,387.374,427.653,354.895,387.563,354.895z"/>
</svg>
