<svg version="1.1" xmlns="http://www.w3.org/2000/svg" xmlns:xlink="http://www.w3.org/1999/xlink" x="0px" y="0px"
	 width="500px" height="500px" viewBox="0 0 500 500" enable-background="new 0 0 500 500" xml:space="preserve">
	<path fill="#B5B5B6" d="M495.117,26.758c-3.109-3.109-7.39-4.883-11.784-4.883H16.667c-4.386,0-8.683,1.774-11.784,4.883
		C1.774,29.866,0,34.147,0,38.542v422.917c0,4.395,1.774,8.675,4.883,11.784c3.101,3.108,7.397,4.883,11.784,4.883h466.667
		c4.395,0,8.675-1.774,11.784-4.883c3.108-3.109,4.883-7.39,4.883-11.784V38.542C500,34.147,498.226,29.866,495.117,26.758z
		 M33.333,55.208h433.333v389.583H33.333V55.208z"/>
	<path fill="#B5B5B6" d="M147.917,172.917c0-17.838-14.453-32.292-32.292-32.292c-17.839,0-32.292,14.453-32.292,32.292
		s14.453,32.292,32.292,32.292C133.463,205.208,147.917,190.755,147.917,172.917z"/>
	<path fill="#B5B5B6" d="M406.217,366.959l-83.333-144.335c-2.979-5.16-8.479-8.333-14.437-8.333s-11.459,3.174-14.438,8.333
		l-62.646,108.496l-37.646-65.201c-2.979-5.16-8.48-8.334-14.437-8.334s-11.458,3.174-14.437,8.334L106.51,366.959
		c-2.979,5.16-2.979,11.508,0,16.667s8.48,8.333,14.437,8.333h104.167h12.5H391.78c5.957,0,11.458-3.174,14.437-8.333
		S409.195,372.119,406.217,366.959z"/>
</svg>
