<svg version="1.1" xmlns="http://www.w3.org/2000/svg" xmlns:xlink="http://www.w3.org/1999/xlink" x="0px" y="0px"
	 width="500px" height="500px" viewBox="0 0 500 500" enable-background="new 0 0 500 500" xml:space="preserve">
<path fill="#B5B5B6" d="M489.985,471.992l-99.128-106.654c34.105-38.77,54.972-89.494,54.972-145.199
	C445.813,98.55,347.279,0.008,225.697,0C104.108,0.008,5.566,98.55,5.558,220.139c0.008,121.582,98.55,220.115,220.139,220.132
	c53.865,0,103.156-19.418,141.414-51.529l98.461,105.939c6.266,6.736,16.813,7.129,23.551,0.863
	C495.861,489.277,496.251,478.73,489.985,471.992z M93.602,352.219c-33.829-33.854-54.703-80.443-54.711-132.08
	c0.008-51.643,20.882-98.232,54.711-132.094c33.862-33.83,80.452-54.704,132.095-54.712c51.636,0.008,98.225,20.882,132.079,54.712
	c33.838,33.862,54.703,80.451,54.72,132.094c-0.017,51.636-20.882,98.226-54.72,132.08c-33.854,33.838-80.443,54.703-132.079,54.719
	C174.062,406.922,127.464,386.057,93.602,352.219z"/>
</svg>
