<svg version="1.1" xmlns="http://www.w3.org/2000/svg" xmlns:xlink="http://www.w3.org/1999/xlink" x="0px" y="0px"
	 width="500px" height="500px" viewBox="0 0 500 500" enable-background="new 0 0 500 500" xml:space="preserve">
<path d="M495.35,7.625c-2.961-2.96-7.037-4.65-11.223-4.65H15.873c-4.177,0-8.27,1.69-11.223,4.65
	C1.69,10.578,0,14.67,0,18.848v375c0,4.186,1.69,8.262,4.65,11.223c2.953,2.961,7.045,4.65,11.223,4.65h252.402l66.654,81.474
	c5.565,6.789,15.563,7.797,22.337,2.247c6.79-5.564,7.798-15.563,2.248-22.337l-71.429-87.302c-0.17-0.201-0.418-0.294-0.604-0.496
	c-0.76-0.837-1.674-1.473-2.619-2.139c-0.76-0.543-1.458-1.163-2.311-1.55c-0.867-0.419-1.813-0.59-2.759-0.837
	c-1.085-0.295-2.124-0.605-3.239-0.651c-0.264-0.016-0.496-0.155-0.76-0.155H31.746V34.721h436.508v343.254h-71.429
	c-8.773,0-15.873,7.1-15.873,15.873s7.1,15.873,15.873,15.873h87.302c4.186,0,8.262-1.689,11.223-4.65s4.65-7.037,4.65-11.223v-375
	C500,14.67,498.311,10.578,495.35,7.625z"/>
<path d="M220.685,206.16c0,17.531,14.229,31.746,31.745,31.746c17.547,0,31.746-14.215,31.746-31.746
	s-14.199-31.746-31.746-31.746C234.914,174.414,220.685,188.629,220.685,206.16z"/>
<path d="M340.114,206.159c0,17.532,14.229,31.747,31.746,31.747c17.547,0,31.746-14.215,31.746-31.747
	c0-17.531-14.199-31.745-31.746-31.745C354.344,174.414,340.114,188.628,340.114,206.159z"/>
<path d="M101.254,206.159c0,17.532,14.229,31.747,31.746,31.747c17.547,0,31.746-14.215,31.746-31.747
	c0-17.531-14.199-31.745-31.746-31.745C115.483,174.414,101.254,188.628,101.254,206.159z"/>
</svg>
