<svg version="1.1" id="图层_1" xmlns="http://www.w3.org/2000/svg" xmlns:xlink="http://www.w3.org/1999/xlink" x="0px" y="0px"
	 width="500px" height="500px" viewBox="0 0 500 500" enable-background="new 0 0 500 500" xml:space="preserve">
	<path d="M93.287,33.142h312.939c8.985,0,16.256-7.279,16.256-16.256c0-8.978-7.271-16.257-16.256-16.257H93.287
		c-8.978,0-16.256,7.279-16.256,16.257C77.03,25.863,84.309,33.142,93.287,33.142"/>
	<path d="M469.276,294.755L262.021,57.002c-0.254-0.293-0.619-0.413-0.889-0.683c-0.271-0.27-0.39-0.635-0.683-0.889
		c-0.556-0.484-1.246-0.659-1.85-1.056c-0.921-0.611-1.802-1.19-2.811-1.595c-0.976-0.397-1.952-0.595-2.969-0.794
		c-1.031-0.198-2.008-0.381-3.056-0.381c-1.04,0-2.024,0.183-3.048,0.381c-1.024,0.199-2,0.397-2.977,0.794
		c-1.008,0.405-1.881,0.984-2.802,1.595c-0.604,0.397-1.302,0.564-1.857,1.056c-0.294,0.254-0.413,0.619-0.683,0.889
		s-0.635,0.389-0.889,0.683L30.238,294.755c-5.898,6.763-5.191,17.034,1.572,22.939c6.771,5.891,17.034,5.191,22.94-1.571
		L249.765,92.429l195,223.694c5.906,6.763,16.178,7.478,22.94,1.571C474.468,311.789,475.167,301.518,469.276,294.755z"/>
	<path d="M233.499,159.13v325.242c0,8.985,7.279,16.257,16.256,16.257c8.978,0,16.257-7.271,16.257-16.257V159.13
		c0-8.978-7.279-16.256-16.257-16.256C240.778,142.874,233.499,150.152,233.499,159.13"/>
</svg>
