<svg version="1.1" xmlns="http://www.w3.org/2000/svg" xmlns:xlink="http://www.w3.org/1999/xlink" x="0px" y="0px"
	 width="500px" height="500px" viewBox="0 0 500 500" enable-background="new 0 0 500 500" xml:space="preserve">
	<path d="M290.809,340.482c-10.967,2.869-22.478,4.405-34.35,4.405c-56.463,0-104.842-34.626-125.077-83.789
		c-0.365-0.891-1.385-1.318-2.277-0.955c-0.893,0.374-1.315,1.39-0.95,2.281c20.752,50.438,70.386,85.944,128.305,85.955
		c12.172,0,23.982-1.575,35.236-4.519c0.929-0.25,1.49-1.201,1.242-2.136C292.697,340.792,291.742,340.232,290.809,340.482z"/>
	<path d="M207.388,83.667c15.211-5.931,31.756-9.182,49.071-9.182c59.92-0.007,110.738,38.984,128.479,92.966
		c0.298,0.913,1.281,1.412,2.199,1.109c0.918-0.3,1.415-1.283,1.113-2.196c-18.194-55.383-70.322-95.368-131.791-95.372
		c-17.753,0-34.732,3.34-50.341,9.424c-0.896,0.35-1.338,1.358-0.989,2.26C205.476,83.574,206.488,84.016,207.388,83.667z"/>
<path d="M109.076,134.38c0,0-4.227-0.057-10.82-0.117v74.262c0,1.376-0.56,2.723-1.533,3.699
	c-0.975,0.974-2.322,1.533-3.703,1.533h-0.611c-1.381,0-2.729-0.56-3.703-1.533c-0.973-0.977-1.533-2.323-1.533-3.699v-74.368
	c-4.877-0.04-10.227-0.082-15.748-0.111v74.479c0,1.365-0.56,2.723-1.534,3.699c-0.977,0.974-2.326,1.533-3.701,1.533h-0.615
	c-1.378,0-2.729-0.56-3.702-1.533c-0.975-0.977-1.534-2.334-1.534-3.699v-74.529c-4.772-0.007-9.488-0.014-13.93-0.003v74.532
	c0,1.365-0.56,2.723-1.535,3.699c-0.975,0.974-2.324,1.533-3.703,1.533H40.56c-1.378,0-2.729-0.56-3.702-1.533
	c-0.975-0.977-1.534-2.334-1.534-3.699V134.06c-6.558,0.067-11.744,0.196-14.381,0.399v93.227c0,5.98,2.418,11.814,6.646,16.042
	c4.225,4.23,10.067,6.644,16.042,6.644h9.162v166.643c0,3.683,1.49,7.278,4.088,9.88c2.602,2.599,6.198,4.092,9.875,4.092
	c3.676,0,7.272-1.493,9.873-4.092c2.6-2.602,4.09-6.197,4.09-9.88V250.371h7.417c5.975,0,11.816-2.413,16.042-6.644
	c4.223-4.228,6.647-10.062,6.647-16.042L109.076,134.38z"/>
<path d="M293.494,221.779c-3.274-4.894-8.113-8.843-14.526-11.847c-4.194-1.939-11.476-4.217-21.852-6.851
	c-10.606-2.684-17.428-5.336-20.456-7.959c-3.035-2.623-4.548-6.312-4.548-11.077c0-5.132,2.067-9.316,6.205-12.553
	c4.144-3.232,10.149-4.857,18.021-4.857c7.748,0,13.771,1.854,18.057,5.542c4.287,3.688,6.775,9.359,7.479,17.008l13.379-1.119
	c-0.231-7.171-1.967-13.401-5.205-18.697c-3.232-5.296-7.78-9.355-13.642-12.196c-3.854-1.868-8.176-3.055-12.88-3.692v-21.313H250
	v21.082c-8.628,0.895-15.719,3.777-21.211,8.731c-6.706,6.052-10.058,13.836-10.058,23.349c0,5.297,1.164,10.044,3.495,14.249
	c2.333,4.199,5.599,7.66,9.796,10.387c4.2,2.727,11.252,5.438,21.166,8.144c11.134,3.026,18.379,5.36,21.733,7.018
	c3.351,1.657,5.857,3.781,7.519,6.362c1.664,2.591,2.494,5.617,2.494,9.088c0,5.928-2.289,10.75-6.867,14.456
	c-4.578,3.714-11.002,5.567-19.283,5.567c-5.771,0-10.962-1.098-15.567-3.293c-4.603-2.188-8.146-5.101-10.625-8.707
	c-2.477-3.607-4.065-8.654-4.767-15.123l-13.118,1.287c0.291,12.25,4.298,21.951,12.027,29.122
	c6.098,5.66,13.871,9.046,23.266,10.239v18.167h13.525v-17.906c5.926-0.531,11.162-1.878,15.68-4.077
	c5.916-2.887,10.598-7.097,14.037-12.621c3.438-5.535,5.16-11.669,5.16-18.395C298.402,232.504,296.762,226.669,293.494,221.779z"/>
<path d="M439.317,129.109h-7.344c-12.43,0-22.504,8.984-22.504,20.069v180.629h21.593v96.858h30.764v-96.858v-9.599
	v-171.03C461.826,138.094,451.747,129.109,439.317,129.109z"/>
<path d="M500,453.932H0c0,9.191,3.723,18.177,10.224,24.674c6.497,6.508,15.488,10.229,24.68,10.229h430.193
		c9.191,0,18.182-3.732,24.68-10.229C496.278,472.108,500,463.123,500,453.932L500,453.932z"/>
<path d="M256.463,11.165c-80.836,0.004-150.354,48.337-181.317,117.67c4.058,0.021,36.427,0.338,36.427,0.338
	c7.513-13.504,16.81-25.875,27.658-36.725c30.008-30.002,71.446-48.561,117.233-48.561c45.787,0,87.226,18.559,117.235,48.561
	c13.474,13.477,24.575,29.29,32.781,46.736c1.461-3.09,3.556-5.845,6.1-8.104c5.058-4.509,11.913-7.203,19.395-7.203h3.451
	C403.412,57.225,335.351,11.169,256.463,11.165z"/>
<path d="M410.273,335.051h-6.261v-49.816c-7.917,15.451-18.149,29.525-30.314,41.683
	c-4.401,4.405-9.063,8.529-13.933,12.414l-0.234-12.945L281.66,373.24c-2.717-8.145-10.387-14.021-19.443-14.021
	c-8.898,0-16.45,5.681-19.287,13.597l-77.168-46.43l-0.397,21.816c-9.42-6.209-18.184-13.337-26.134-21.285
	c-19.893-19.888-34.668-44.844-42.425-72.722c-2.78,0.912-5.703,1.407-8.671,1.407h-2.182v55.726
	c18.817,31.506,46.098,57.375,78.733,74.422l-0.857,47.32l80.011-44.284c3.349,6.775,10.307,11.452,18.378,11.452
	c8.217,0,15.288-4.852,18.555-11.826l80.689,44.658l-0.982-54.307C379.443,367.074,396.246,352.232,410.273,335.051z"/>
</svg>
