<svg version="1.1" xmlns="http://www.w3.org/2000/svg" xmlns:xlink="http://www.w3.org/1999/xlink" x="0px" y="0px"
	width="500px" height="500px" viewBox="0 0 500 500" enable-background="new 0 0 500 500" xml:space="preserve">
		<path d="M436.33,186.464c0.029-58.676-27.709-116.534-79.446-152.767C324.409,10.958,287.055-0.015,250.17,0
			c-58.69-0.021-116.563,27.723-152.795,79.468c-22.748,32.489-33.712,69.844-33.705,106.728
			c0.007,37.891,11.522,75.392,33.64,106.996l0.037-0.029c0.007,0.015,0.007,0.044,0.021,0.059l140.325,200.449
			c2.788,3.982,7.286,6.329,12.145,6.329s9.357-2.332,12.152-6.315L402.61,293.222c0,0,0-0.015,0.015-0.015l0,0
			C425.38,260.719,436.345,223.363,436.33,186.464z M249.858,459.328L121.672,276.217c-0.029-0.044-0.072-0.058-0.101-0.102
			c-18.54-26.521-28.237-58.068-28.237-89.919c0.014-31.047,9.176-62.319,28.346-89.716c30.497-43.547,79.041-66.795,128.491-66.816
			c31.048,0.007,62.305,9.168,89.709,28.338c43.54,30.49,66.772,79.027,66.787,128.462c0,31.062-9.168,62.333-28.346,89.738l0,0
			L249.858,459.328z"/>
		<path d="M250.003,138.007c29.244,0,52.955,23.711,52.955,52.955c0,29.244-23.711,52.955-52.955,52.955
			c-29.244,0-52.955-23.711-52.955-52.955C197.048,161.718,220.759,138.007,250.003,138.007 M250.003,108.343
			c-45.553,0-82.619,37.065-82.619,82.619s37.065,82.619,82.619,82.619s82.619-37.066,82.619-82.619S295.557,108.343,250.003,108.343
			z"/>
</svg>
