<svg version="1.1" xmlns="http://www.w3.org/2000/svg" xmlns:xlink="http://www.w3.org/1999/xlink" x="0px" y="0px"
	 width="500px" height="500px" viewBox="0 0 500 500" enable-background="new 0 0 500 500" xml:space="preserve">
<path d="M356.884,33.698C324.409,10.958,287.055-0.015,250.17,0c-58.69-0.022-116.563,27.723-152.795,79.468
	c-22.748,32.489-33.712,69.844-33.705,106.728c0.007,37.891,11.522,75.392,33.64,106.996l0.036-0.029
	c0.007,0.015,0.007,0.044,0.021,0.059L237.692,493.67c2.788,3.983,7.286,6.33,12.145,6.33s9.356-2.332,12.152-6.315L402.61,293.222
	c0,0,0-0.015,0.015-0.015c22.755-32.488,33.72-69.844,33.705-106.743C436.359,127.788,408.622,69.931,356.884,33.698z
	 M250.003,273.58c-45.553,0-82.619-37.065-82.619-82.618c0-45.554,37.065-82.619,82.619-82.619s82.619,37.065,82.619,82.619
	C332.622,236.515,295.557,273.58,250.003,273.58z"/>
</svg>
