<svg version="1.1" xmlns="http://www.w3.org/2000/svg" xmlns:xlink="http://www.w3.org/1999/xlink" x="0px" y="0px"
	 width="500px" height="500px" viewBox="0 0 500 500" enable-background="new 0 0 500 500" xml:space="preserve">
<path d="M369.704,244.477c-19.457-3.773-10.013-14.242-10.013-14.242s19.039-31.368-3.766-54.173
	c-28.244-28.244-96.897,3.594-96.897,3.594c-26.22,8.137-19.271-3.714-15.564-23.881c0-23.761-8.137-63.976-77.986-40.222
	C95.696,139.435,35.785,223.107,35.785,223.107c-41.665,55.599-36.15,98.564-36.15,98.564
	c10.409,94.865,111.207,120.913,189.604,127.085c82.484,6.456,193.795-28.438,227.57-100.141
	C450.552,276.794,389.222,248.37,369.704,244.477z M195.344,422.006c-81.879,3.825-148.074-37.241-148.074-91.877
	c0-54.71,66.195-98.579,148.074-102.352c81.946-3.773,148.268,29.986,148.268,84.569C343.611,366.981,277.29,418.27,195.344,422.006
	z"/>
<path d="M179.01,263.808c-82.357,9.639-72.838,86.78-72.838,86.78s-0.844,24.434,22.08,36.867
	c48.188,26.093,97.802,10.296,122.878-22.072C276.214,332.998,261.486,254.235,179.01,263.808z M158.237,372.077
	c-15.377,1.809-27.766-7.068-27.766-19.92c0-12.822,11.006-26.228,26.391-27.826c17.664-1.688,29.156,8.488,29.156,21.355
	C186.019,358.493,173.555,370.329,158.237,372.077z M206.783,330.727c-5.208,3.886-11.619,3.348-14.369-1.314
	c-2.869-4.559-1.793-11.866,3.475-15.691c6.104-4.543,12.448-3.229,15.198,1.314C213.844,319.698,211.872,326.707,206.783,330.727z"
	/>
<path d="M409.8,211.077c6.635,0,12.269-4.909,13.226-11.313c0.119-0.479,0.179-0.897,0.179-1.435
	c10.058-90.435-74.093-74.87-74.093-74.87c-7.473,0-13.479,6.045-13.479,13.584c0,7.42,6.007,13.465,13.479,13.465
	c60.434-13.345,47.104,47.104,47.104,47.104C396.215,205.092,402.313,211.077,409.8,211.077z"/>
<path d="M399.981,53.229c-29.082-6.814-59.015-0.941-67.398,0.665c-0.657,0.06-1.255,0.672-1.854,0.792
	c-0.299,0.06-0.478,0.358-0.478,0.358c-8.249,2.339-14.302,9.99-14.302,19.031c0,10.775,8.742,19.637,19.622,19.637
	c0,0,10.61-1.419,17.783-4.229c7.113-2.869,67.398-2.137,97.316,48.135c16.349,36.688,7.188,61.241,6.037,65.187
	c0,0-3.886,9.534-3.886,18.919c0,10.834,8.758,17.642,19.577,17.642c9.041,0,16.647-1.233,18.859-16.536h0.119
	C523.51,115.711,452.047,65.379,399.981,53.229z"/>
</svg>
