<svg version="1.1" xmlns="http://www.w3.org/2000/svg" xmlns:xlink="http://www.w3.org/1999/xlink" x="0px" y="0px"
	 width="500px" height="500px" viewBox="0 0 500 500" enable-background="new 0 0 500 500" xml:space="preserve">
<path d="M321.87,271.052c43.704-25.001,73.22-71.976,73.235-125.946C395.09,64.957,330.141,0.008,250,0
	c-80.155,0.008-145.105,64.957-145.113,145.105c0.008,53.971,29.523,100.945,73.228,125.946
	C88.961,301.083,24.687,385.169,24.679,484.46c0,8.59,6.958,15.54,15.54,15.54s15.54-6.95,15.54-15.54
	c0.007-53.689,21.715-102.159,56.892-137.351C147.848,311.934,196.31,290.218,250,290.21
	c53.675,0.008,102.129,21.724,137.336,56.899c35.191,35.191,56.892,83.661,56.906,137.351c0,8.59,6.95,15.54,15.54,15.54
	c8.589,0,15.539-6.95,15.539-15.54C475.307,385.169,411.009,301.083,321.87,271.052z M169.367,225.731
	c-20.661-20.685-33.393-49.092-33.4-80.626c0.007-31.542,12.739-59.95,33.4-80.626c20.684-20.661,49.092-33.394,80.633-33.4
	c31.534,0.007,59.942,12.739,80.626,33.4c20.653,20.684,33.386,49.092,33.4,80.626c-0.015,31.534-12.747,59.941-33.4,80.626
	c-20.684,20.66-49.092,33.393-80.626,33.4C218.458,259.124,190.05,246.392,169.367,225.731z"/>
</svg>
